<svg width="49" height="47" fill="none" xmlns="http://www.w3.org/2000/svg"><path d="M48.72 8.621L40.01.27a.978.978 0 00-.675-.27H10.91C9.327 0 8.04 1.235 8.04 2.754v1.75C3.337 6.273 0 10.668 0 15.797c0 .507.429.918.957.918h11.684c.529 0 .958-.41.958-.918V4.59c0-.507-.429-.918-.957-.918-.923 0-1.822.096-2.689.277V2.754c0-.506.43-.918.957-.918h27.467v5.6c0 1.518 1.288 2.754 2.871 2.754h5.838v34.056c0 .506-.43.918-.957.918H10.91c-.528 0-.957-.412-.957-.918v-7.864c0-.507-.428-.918-.957-.918-.528 0-.957.411-.957.918v7.864C8.04 45.765 9.327 47 10.91 47h35.22c1.582 0 2.87-1.235 2.87-2.754V9.27a.9.9 0 00-.28-.649zM11.684 5.548v9.331H1.956c.458-4.943 4.575-8.892 9.728-9.33zm29.564 2.806c-.528 0-.957-.412-.957-.918V3.134l5.443 5.22h-4.486z" fill="#fff"/><path d="M9.673 32.398a.984.984 0 00-1.354 0 .906.906 0 00-.28.649c0 .241.102.478.28.649a.985.985 0 001.354 0 .906.906 0 00.28-.65.906.906 0 00-.28-.648zM16.07 6.96c-.529 0-.957.411-.957.918v10.29H4.385c-.528 0-.957.41-.957.917 0 6.686 5.671 12.126 12.642 12.126 6.97 0 12.641-5.44 12.641-12.126 0-6.686-5.67-12.125-12.641-12.125zm.957 1.877a10.92 10.92 0 015.918 2.356l-5.918 5.676V8.837zm-.957 20.538c-5.593 0-10.2-4.126-10.685-9.372H16.07a.975.975 0 00.676-.268l7.552-7.244c1.56 1.787 2.5 4.087 2.5 6.594 0 5.674-4.813 10.29-10.728 10.29zm25.855-.403c-1.583 0-2.87 1.235-2.87 2.753 0 .381.08.744.226 1.074l-5.514 5.288a2.955 2.955 0 00-1.253-.276 2.96 2.96 0 00-1.226.264l-3.661-3.512c.127-.31.197-.648.197-1.002 0-1.518-1.288-2.754-2.87-2.754-1.584 0-2.872 1.236-2.872 2.754 0 .412.095.802.265 1.153l-3.512 3.369a2.953 2.953 0 00-1.234-.268c-1.584 0-2.871 1.235-2.871 2.753 0 1.519 1.287 2.754 2.87 2.754 1.584 0 2.872-1.235 2.872-2.754 0-.425-.102-.829-.282-1.189l3.492-3.35c.384.183.815.286 1.271.286.516 0 1-.131 1.418-.36l3.558 3.413a2.646 2.646 0 00-.286 1.197c0 1.518 1.288 2.754 2.871 2.754s2.871-1.236 2.871-2.754c0-.419-.098-.816-.273-1.17l5.463-5.24a2.95 2.95 0 001.35.324c1.583 0 2.871-1.235 2.871-2.753 0-1.519-1.288-2.754-2.87-2.754zM17.601 41.486c-.528 0-.957-.411-.957-.917 0-.507.429-.918.957-.918.257 0 .49.098.662.256l.01.012.015.012a.9.9 0 01.27.638c0 .506-.43.917-.957.917zm7.352-7.007c-.527 0-.957-.411-.957-.918 0-.506.43-.918.957-.918.528 0 .957.412.957.918 0 .507-.43.918-.957.918zm7.561 7.004c-.528 0-.957-.412-.957-.918s.43-.918.957-.918c.528 0 .957.412.957.918s-.43.918-.957.918zm9.411-8.84c-.528 0-.957-.412-.957-.918s.43-.918.957-.918c.528 0 .957.412.957.918s-.43.918-.957.918zm-4.784-11.071h-5.05c-.53 0-.958.411-.958.918 0 .507.429.918.957.918h5.051c.529 0 .958-.41.958-.918 0-.507-.43-.918-.958-.918zm5.034.269a.985.985 0 00-1.353 0 .906.906 0 00-.28.65c0 .24.102.477.28.648a.984.984 0 001.353 0 .905.905 0 00.281-.649.906.906 0 00-.28-.649zm1.605-9.081H32.09c-.528 0-.957.41-.957.918 0 .507.429.918.957.918h11.69c.53 0 .958-.411.958-.918 0-.507-.429-.918-.957-.918zm0 4.406H32.09c-.528 0-.957.411-.957.918 0 .507.429.918.957.918h11.69c.53 0 .958-.411.958-.918 0-.507-.429-.918-.957-.918z" fill="#fff"/></svg>