<svg width="47" height="47" fill="none" xmlns="http://www.w3.org/2000/svg"><path d="M41.86 5.875h-3.672V4.406a2.937 2.937 0 00-5.876 0v1.469h-5.874V4.406a2.937 2.937 0 00-5.875 0v1.469h-5.875V4.406a2.937 2.937 0 00-5.876 0v1.469h-3.67A3.672 3.672 0 001.47 9.547v29.375a3.672 3.672 0 003.672 3.672h20.562a.734.734 0 000-1.469H5.141a2.21 2.21 0 01-2.204-2.203V16.156h41.126v12.485a.734.734 0 001.468 0V9.547a3.672 3.672 0 00-3.672-3.672zm-8.08-1.469a1.469 1.469 0 012.938 0v4.407a1.469 1.469 0 01-2.938 0V4.405zm-11.75 0a1.469 1.469 0 012.938 0v4.407a1.469 1.469 0 01-2.938 0V4.405zm-11.75 0a1.469 1.469 0 012.938 0v4.407a1.469 1.469 0 01-2.938 0V4.405zm33.782 10.282H2.937V9.546a2.21 2.21 0 012.204-2.203h3.671v1.468a2.937 2.937 0 005.876 0V7.345h5.874v1.468a2.937 2.937 0 005.875 0V7.345h5.875v1.468a2.937 2.937 0 005.876 0V7.345h3.671a2.21 2.21 0 012.203 2.203v5.14z" fill="#fff"/><path d="M22.031 21.297a1.469 1.469 0 00-1.468-1.469h-2.938a1.47 1.47 0 00-1.469 1.469V23.5a1.47 1.47 0 001.469 1.469h2.938A1.47 1.47 0 0022.03 23.5v-2.203zM17.625 23.5v-2.203h2.938V23.5h-2.938zm-4.406-2.203a1.469 1.469 0 00-1.469-1.469H8.812a1.469 1.469 0 00-1.468 1.469V23.5a1.469 1.469 0 001.468 1.469h2.938a1.47 1.47 0 001.469-1.469v-2.203zM8.813 23.5v-2.203h2.937V23.5H8.812zm29.375 1.469a1.47 1.47 0 001.468-1.469v-2.203a1.469 1.469 0 00-1.468-1.469H35.25a1.47 1.47 0 00-1.469 1.469V23.5a1.47 1.47 0 001.469 1.469h2.938zm-2.938-3.672h2.938V23.5H35.25v-2.203zm-13.219 6.609a1.469 1.469 0 00-1.468-1.468h-2.938a1.469 1.469 0 00-1.469 1.468v2.203a1.469 1.469 0 001.469 1.47h2.938a1.469 1.469 0 001.468-1.47v-2.203zm-4.406 2.203v-2.203h2.938v2.203h-2.938zm-4.406-2.203a1.469 1.469 0 00-1.469-1.468H8.812a1.469 1.469 0 00-1.468 1.468v2.203a1.469 1.469 0 001.468 1.47h2.938a1.469 1.469 0 001.469-1.47v-2.203zM8.813 30.11v-2.203h2.937v2.203H8.812zm11.75 2.937h-2.938a1.469 1.469 0 00-1.469 1.469v2.203a1.469 1.469 0 001.469 1.468h2.938a1.469 1.469 0 001.468-1.468v-2.203a1.469 1.469 0 00-1.468-1.47zm-2.938 3.672v-2.203h2.938v2.203h-2.938zm8.813-11.75h2.937a1.47 1.47 0 001.469-1.469v-2.203a1.469 1.469 0 00-1.469-1.469h-2.938a1.47 1.47 0 00-1.468 1.469V23.5a1.47 1.47 0 001.468 1.469zm0-3.672h2.937V23.5h-2.938v-2.203zm-1.469 8.813a1.469 1.469 0 001.468 1.468.734.734 0 100-1.469v-2.203h2.938a.734.734 0 100-1.468h-2.938a1.469 1.469 0 00-1.468 1.468v2.203zM11.75 33.047H8.812a1.469 1.469 0 00-1.468 1.469v2.203a1.469 1.469 0 001.468 1.468h2.938a1.469 1.469 0 001.469-1.468v-2.203a1.469 1.469 0 00-1.469-1.47zm-2.938 3.672v-2.203h2.938v2.203H8.812z" fill="#fff"/><path d="M35.984 26.438a9.547 9.547 0 109.547 9.546 9.558 9.558 0 00-9.547-9.547zm0 17.625a8.079 8.079 0 118.078-8.079 8.088 8.088 0 01-8.078 8.078z" fill="#fff"/><path d="M40.228 32.906l-5.712 5.712-2.596-2.597a.734.734 0 00-1.039 1.038l3.116 3.116a.734.734 0 001.038 0l6.231-6.23a.735.735 0 00-1.038-1.04z" fill="#fff"/></svg>