<svg width="47" height="47" fill="none" xmlns="http://www.w3.org/2000/svg"><path d="M46.266 15.816a3.335 3.335 0 00-3.331-3.332 3.31 3.31 0 00-2.356.976l-2.176 2.177-2.419 2.418v-7.098c2.488-.359 4.407-2.498 4.407-5.082A5.146 5.146 0 0035.25.735H5.875a5.146 5.146 0 00-5.14 5.14v36.719c0 .405.328.734.734.734H5.14v2.203c0 .406.329.735.734.735H35.25a.735.735 0 00.734-.735V27.476l7.129-7.129.754-.754a9.84 9.84 0 01-2.704 5.034l-3.494 3.494 1.038 1.038 3.494-3.493a11.29 11.29 0 003.318-7.774 3.293 3.293 0 00.747-2.076zm-4.648-1.317a1.85 1.85 0 011.316-.546c1.027 0 1.863.836 1.863 1.863 0 .497-.194.964-.546 1.316l-1.657 1.658-2.634-2.634 1.658-1.657zm-2.696 2.696l.797.797-9.242 9.243-.798-.797 9.243-9.243zm-17.466 19.38l1.51-3.023 2.232 2.231-3.022 1.51-.72-.719zm2.348-4.263l4.837-4.836 2.633 2.633-4.837 4.837-2.633-2.633zM35.25 2.203a3.676 3.676 0 013.672 3.672 3.676 3.676 0 01-3.672 3.672H9.466a5.123 5.123 0 000-7.344H35.25zM6.61 9.473v-2.13c0-.404.33-.734.734-.734h2.129a3.683 3.683 0 01-2.864 2.864zM2.202 41.859V5.875a3.676 3.676 0 013.672-3.672 3.679 3.679 0 013.598 2.938h-2.13A2.206 2.206 0 005.14 7.344v34.515H2.203zm32.313 2.938H6.609V11.016h27.907v8.508l-3.242 3.242H9.547v1.468h20.258l-1.468 1.47H9.547v1.468h17.32l-4.62 4.621a.719.719 0 00-.13.195l-.008-.005-2.203 4.407a.734.734 0 00.138.847l.215.216-1.684 1.684 1.038 1.038 1.684-1.683.215.215a.734.734 0 00.848.138l4.406-2.203-.005-.008a.722.722 0 00.195-.13l5.875-5.875 1.685-1.684v15.852zM32.313 29.07l-.798-.798 9.243-9.242.797.797-9.242 9.243z" fill="#fff"/><path d="M9.547 13.953h22.031v1.469H9.547v-1.469zm0 2.937h22.031v1.47H9.547v-1.47zm0 2.938h22.031v1.469H9.547v-1.469zm0 17.625h8.078v1.469H9.547v-1.469zm0 2.937h22.031v1.47H9.547v-1.47z" fill="#fff"/></svg>