<svg width="51" height="55" fill="none" xmlns="http://www.w3.org/2000/svg"><path d="M6.871 35.484H5.097a4.435 4.435 0 01-4.435-4.436 2.661 2.661 0 012.66-2.66h3.55v7.096z" fill="#BD4150"/><path d="M40.581 0H7.758l-.913 1.774v52.367h41.72l1.774-.915V9.758L40.581 0z" fill="#ECEAEC"/><path d="M7.759 50.565V0c-.98 0-1.775.794-1.775 1.774v51.452c0 .98.795 1.774 1.775 1.774h40.806c.98 0 1.774-.794 1.774-1.774H10.42a2.661 2.661 0 01-2.66-2.661zM50.34 9.606c0-.47-.188-.922-.52-1.255L41.986.52A1.774 1.774 0 0040.733 0h-.152v8.871c0 .49.397.887.887.887h8.871v-.152z" fill="#DAD8DB"/><path d="M30.823 33.71h-27.5c-.311 0-.61-.054-.888-.152l-.854 1.426V46.19a2.661 2.661 0 002.661 2.662h26.58l1.775-.95v-12.42c0-.979-.794-1.773-1.774-1.773z" fill="#E15F78"/><path d="M2.436 33.558a2.668 2.668 0 01-1.774-2.51v15.968a2.661 2.661 0 002.66 2.661h27.5c.98 0 1.775-.794 1.775-1.774h-27.5a2.661 2.661 0 01-2.661-2.661V33.558z" fill="#DB4655"/><path d="M25.979 40.74h-1.741v-1.682h1.968a.887.887 0 100-1.774H23.35a.887.887 0 00-.888.887v7.045a.887.887 0 101.775 0v-2.702h1.74a.887.887 0 100-1.774zM9.708 37.258H7.732a.888.888 0 00-.886.887v7.097a.887.887 0 101.773 0v-2.2l1.09-.004c1.614 0 2.928-1.297 2.928-2.89 0-1.594-1.314-2.89-2.929-2.89zm0 4.005l-1.08.004-.006-2.235H9.71c.626 0 1.154.511 1.154 1.116 0 .605-.528 1.115-1.155 1.115zm7.44-3.9h-1.95a.887.887 0 00-.887.889l.005 3.434c0 .958.008 3.454.008 3.454a.888.888 0 00.888.884h.003s1.446-.005 2.006-.015c2.083-.037 3.596-1.852 3.596-4.315 0-2.59-1.475-4.331-3.67-4.331zm.041 6.872c-.254.004-.693.008-1.093.01-.003-.812-.006-1.974-.006-2.56l-.003-2.548h1.06c1.804 0 1.895 2.13 1.895 2.556 0 1.25-.572 2.52-1.853 2.542z" fill="#fff"/><path d="M19.263 30.01c-.684 0-1.303-.356-1.738-1.028-.646-.997-.476-2.127.466-3.099.949-.98 2.892-1.903 5.23-2.656a45.634 45.634 0 002.166-4.763c.41-1.051.74-2 1.006-2.847-1.169-2.142-1.864-4.137-1.679-5.432.188-1.314 1.17-2.054 2.628-1.973.434.023 1.467.25 1.716 1.84.191 1.217-.13 3.184-.772 5.42 1.216 2.051 2.884 4.249 4.515 5.936 2.465-.15 4.555.029 5.606.663.823.496 1.146 1.306.864 2.165-.46 1.404-1.574 2.047-2.98 1.72-1.185-.277-2.652-1.311-4.14-2.747-2.394.211-5.212.698-7.683 1.425-1.476 2.648-3.07 4.71-4.41 5.221-.27.104-.537.155-.795.155zm-.25-1.992c.149.227.23.223.268.218.565-.057 1.506-1.032 2.58-2.68a12.01 12.01 0 00-1.882.988c-1.343.89-1.058 1.329-.965 1.474zm15.629-4.926c.758.593 1.462.998 2.051 1.136.46.107.697.052.893-.545-.262-.396-1.375-.587-2.944-.59zm-7.046-5.47a48.38 48.38 0 01-2.056 4.946 43.143 43.143 0 015.088-.956 35.141 35.141 0 01-3.032-3.99zM27.17 9.95c-.63 0-.663.236-.7.485-.092.655.139 1.588.593 2.662.401-1.915.32-2.928.125-3.147h-.018z" fill="#E15F78"/></svg>